# xmcd
# Copyright (C) 1995-1998 Ti Kan
#
# Track frame offsets:
#       150
#       16351
#       53003
#       65153
#
# Disc length: 914 seconds
#
# Revision: 0
# Processed by: cddbd v1.5.1PL0 Copyright (c) Steve Scherf et al.
# Submitted via: CD-Transfer v1.0
#
DISCID=30039004
DTITLE=Elli - Not My Type
DYEAR=04
DGENRE=
TTITLE0=Not My Type
TTITLE1=All Things
TTITLE2=Not My Type (Instrumental)
TTITLE3=Data Track
EXTD=
EXTT0=
EXTT1=
EXTT2=
EXTT3=
PLAYORDER=
